<?xml version="1.0" encoding="utf-8"?>
<!-- Generator: Adobe Illustrator 19.1.0, SVG Export Plug-In . SVG Version: 6.00 Build 0)  -->
<svg version="1.1" id="Layer_1" xmlns="http://www.w3.org/2000/svg" xmlns:xlink="http://www.w3.org/1999/xlink" x="0px" y="0px"
	 viewBox="0 0 30 30" enable-background="new 0 0 30 30" xml:space="preserve">
<path fill="#FFFFFF" d="M29.4,10.4C29.4,10.4,29.4,10.4,29.4,10.4c0-0.1,0-0.1,0-0.2c0,0,0,0,0-0.1c0,0,0-0.1,0-0.1c0,0,0,0,0-0.1
	c0,0,0-0.1,0-0.1c0,0,0,0,0-0.1c0,0,0-0.1-0.1-0.1c0,0,0,0,0-0.1c0,0,0,0-0.1-0.1c0,0,0,0,0,0c0,0,0,0-0.1-0.1c0,0,0,0-0.1,0
	c0,0,0,0,0,0L15.7,0.8c-0.4-0.3-1-0.3-1.4,0L1.1,9.6c0,0,0,0,0,0c0,0,0,0-0.1,0c0,0,0,0-0.1,0.1c0,0,0,0,0,0c0,0,0,0-0.1,0.1
	c0,0,0,0,0,0.1c0,0,0,0-0.1,0.1c0,0,0,0,0,0.1c0,0,0,0.1,0,0.1c0,0,0,0,0,0.1c0,0,0,0.1,0,0.1c0,0,0,0,0,0.1c0,0,0,0.1,0,0.1
	c0,0,0,0,0,0.1c0,0.1,0,0.1,0,0.2v8.8c0,0.1,0,0.1,0,0.2c0,0,0,0,0,0.1c0,0,0,0.1,0,0.1c0,0,0,0,0,0.1c0,0,0,0.1,0,0.1
	c0,0,0,0,0,0.1c0,0,0,0.1,0,0.1c0,0,0,0,0,0.1c0,0,0,0.1,0.1,0.1c0,0,0,0,0,0.1c0,0,0,0,0.1,0.1c0,0,0,0,0,0c0,0,0,0,0.1,0.1
	c0,0,0,0,0.1,0c0,0,0,0,0,0l13.2,8.8c0.2,0.1,0.4,0.2,0.7,0.2c0.2,0,0.5-0.1,0.7-0.2l13.2-8.8c0,0,0,0,0,0c0,0,0,0,0.1,0
	c0,0,0,0,0.1-0.1c0,0,0,0,0,0c0,0,0,0,0.1-0.1c0,0,0,0,0-0.1c0,0,0,0,0.1-0.1c0,0,0,0,0-0.1c0,0,0-0.1,0-0.1c0,0,0,0,0-0.1
	c0,0,0-0.1,0-0.1c0,0,0,0,0-0.1c0,0,0-0.1,0-0.1c0,0,0,0,0-0.1c0-0.1,0-0.1,0-0.2v-8.8C29.4,10.5,29.4,10.5,29.4,10.4z M16.2,4.1
	l9.7,6.5l-4.3,2.9l-5.4-3.6V4.1z M13.8,4.1v5.8l-5.4,3.6L4,10.6L13.8,4.1z M3,12.9L6.1,15L3,17.1V12.9z M13.8,25.9L4,19.4l4.3-2.9
	l5.4,3.6V25.9z M15,17.9L10.6,15l4.4-2.9l4.4,2.9L15,17.9z M16.2,25.9v-5.8l5.4-3.6l4.3,2.9L16.2,25.9z M27,17.1L23.9,15l3.1-2.1
	V17.1z"/>
</svg>
