<?xml version="1.0" encoding="utf-8"?>
<!-- Generator: Adobe Illustrator 19.1.0, SVG Export Plug-In . SVG Version: 6.00 Build 0)  -->
<svg version="1.1" id="Layer_1" xmlns="http://www.w3.org/2000/svg" xmlns:xlink="http://www.w3.org/1999/xlink" x="0px" y="0px"
	 viewBox="-248 286 30 30" style="enable-background:new -248 286 30 30;" xml:space="preserve">
<style type="text/css">
	.st0{fill:#FFFFFF;}
</style>
<path class="st0" d="M-233,315.8c-8.1,0-14.8-6.6-14.8-14.8s6.6-14.8,14.8-14.8s14.8,6.6,14.8,14.8S-224.9,315.8-233,315.8z
	 M-220.6,303c-0.4-0.1-3.9-1.2-7.8-0.5c1.6,4.5,2.3,8.2,2.4,9C-223.1,309.6-221.1,306.5-220.6,303L-220.6,303z M-228.1,312.6
	c-0.2-1.1-0.9-5-2.7-9.6l-0.1,0c-7.1,2.5-9.7,7.4-9.9,7.9c2.1,1.7,4.8,2.7,7.7,2.7C-231.3,313.6-229.6,313.3-228.1,312.6
	L-228.1,312.6z M-242.4,309.4c0.3-0.5,3.7-6.2,10.2-8.3c0.2-0.1,0.3-0.1,0.5-0.1c-0.3-0.7-0.7-1.4-1-2.1c-6.3,1.9-12.4,1.8-12.9,1.8
	l0,0.4C-245.6,304.3-244.4,307.2-242.4,309.4L-242.4,309.4z M-245.3,298.4c0.6,0,5.8,0,11.6-1.5c-2.1-3.7-4.3-6.8-4.7-7.3
	C-241.9,291.3-244.5,294.5-245.3,298.4L-245.3,298.4z M-235.9,288.8c0.3,0.5,2.6,3.6,4.7,7.4c4.5-1.7,6.4-4.2,6.6-4.6
	c-2.2-2-5.2-3.2-8.4-3.2C-234,288.4-235,288.5-235.9,288.8L-235.9,288.8z M-223.2,293.1c-0.3,0.4-2.4,3.1-7,5
	c0.3,0.6,0.6,1.2,0.8,1.8c0.1,0.2,0.2,0.4,0.3,0.6c4.2-0.5,8.4,0.3,8.8,0.4C-220.4,297.9-221.5,295.2-223.2,293.1L-223.2,293.1z"/>
</svg>
