<?xml version="1.0" encoding="utf-8"?>
<!-- Generator: Adobe Illustrator 18.1.1, SVG Export Plug-In . SVG Version: 6.00 Build 0)  -->
<svg version="1.1" id="Capa_1" xmlns="http://www.w3.org/2000/svg" xmlns:xlink="http://www.w3.org/1999/xlink" x="0px" y="0px"
	 viewBox="0 0 1000 1000" enable-background="new 0 0 1000 1000" xml:space="preserve">
<g>
	<polygon fill="#01049C" points="236,456 236,542 300,498 	"/>
	<polygon fill="#01049C" points="264,608 460,740 460,606 362,540 	"/>
	<polygon fill="#01049C" points="624,458 726,390 528,252 528,390 	"/>
	<polygon fill="#01049C" points="458,386 458,252 264,390 360,454 	"/>
	<polygon fill="#01049C" points="486,452 422,496 496,544 560,500 	"/>
	<polygon fill="#01049C" points="530,606 530,740 726,608 624,542 	"/>
	<path fill="#01049C" d="M0,0v1000h1000V0H0z M824,600c0,18-8,34-24,44L524,826c-18,12-40,12-58,0L196,648c-14-10-24-26-24-44V404
		c0-18,8-34,22-44l266-184c18-12,42-12,60,0l280,186c14,10,24,26,24,44V600z"/>
	<polygon fill="#01049C" points="754,544 754,456 686,500 	"/>
</g>
</svg>
