<?xml version="1.0" encoding="utf-8"?>
<!-- Generator: Adobe Illustrator 18.1.1, SVG Export Plug-In . SVG Version: 6.00 Build 0)  -->
<svg version="1.1" id="Capa_1" xmlns="http://www.w3.org/2000/svg" xmlns:xlink="http://www.w3.org/1999/xlink" x="0px" y="0px"
	 viewBox="0 0 1000 1000" enable-background="new 0 0 1000 1000" xml:space="preserve">
<g>
	<path fill="#01049C" stroke="#000000" stroke-width="1.2139" stroke-miterlimit="10" d="M494.4,493.1l12.3-3.7
		c-7.8-17.7-16.4-35.4-25.3-52.9c-155.7,46.6-306.8,44.6-320.5,44.3l-0.1,9.6c0.1,80.1,30.4,153.3,80.1,208.5
		C248,686.8,333.6,545.1,494.4,493.1z"/>
	<path fill="#01049C" stroke="#000000" stroke-width="1.2139" stroke-miterlimit="10" d="M455.7,388.5
		C404,296.6,348.3,219.4,340.1,208.1c-87.2,41.2-152.4,121.6-172.7,218.4C181.4,426.7,309.8,427.2,455.7,388.5z"/>
	<path fill="#01049C" stroke="#000000" stroke-width="1.2139" stroke-miterlimit="10" d="M679.4,257c-55-48.9-127.5-78.6-206.7-78.6
		c-25.1,0-49.6,3-73.1,8.7c8.7,11.6,65.3,88.7,116.4,182.6C626.9,328.1,673.9,265,679.4,257z"/>
	<path fill="#01049C" stroke="#000000" stroke-width="1.2139" stroke-miterlimit="10" d="M525.9,541.7
		C350,603,286.8,725,281.2,736.4c52.9,41.3,119.4,65.8,191.4,65.8c43.3,0.1,84.5-8.8,121.9-24.7c-4.7-27.4-22.7-122.8-66.5-236.5
		L525.9,541.7z"/>
	<path fill="#01049C" stroke="#000000" stroke-width="1.2139" stroke-miterlimit="10" d="M586.4,526.6
		c40.7,112,57.4,203.4,60.6,222.3c70-47.3,119.7-122.2,133.7-209C770,536.5,684.1,510.9,586.4,526.6z"/>
	<path fill="#01049C" stroke="#000000" stroke-width="1.2139" stroke-miterlimit="10" d="M539.9,416.1c7.3,14.9,14.2,30,20.7,45.2
		l6.7,16.1c103.8-13.1,206.8,7.8,217.2,10c-0.7-73.6-27-141.2-70.4-194.3C707.5,302,655.3,369,539.9,416.1z"/>
	<path fill="#01049C" stroke="#000000" stroke-width="1.2139" stroke-miterlimit="10" d="M-113.2-50v1100h1213.8V-50H-113.2z
		 M472.7,855c-201.3,0-365.1-163.8-365.1-365.1s163.8-365.1,365.1-365.1s365.1,163.8,365.1,365.1S674,855,472.7,855z"/>
</g>
</svg>
