<?xml version="1.0" encoding="utf-8"?>
<!-- Generator: Adobe Illustrator 19.1.0, SVG Export Plug-In . SVG Version: 6.00 Build 0)  -->
<svg version="1.1" id="Layer_1" xmlns="http://www.w3.org/2000/svg" xmlns:xlink="http://www.w3.org/1999/xlink" x="0px" y="0px"
	 viewBox="-248 286 30 30" style="enable-background:new -248 286 30 30;" xml:space="preserve">
<style type="text/css">
	.st0{fill:#FFFFFF;}
</style>
<path class="st0" d="M-218.2,291.8c-1.1,0.5-2.3,0.8-3.5,1c1.2-0.8,2.2-1.9,2.7-3.4c-1.2,0.7-2.5,1.2-3.8,1.5
	c-1.1-1.2-2.7-1.9-4.4-1.9c-3.3,0-6.1,2.7-6.1,6.1c0,0.5,0.1,0.9,0.2,1.4c-5-0.3-9.5-2.7-12.5-6.3c-0.5,0.9-0.8,1.9-0.8,3
	c0,2.1,1.1,4,2.7,5c-1,0-1.9-0.3-2.7-0.8v0.1c0,2.9,2.1,5.4,4.9,5.9c-0.5,0.1-1,0.2-1.6,0.2c-0.4,0-0.8,0-1.1-0.1
	c0.8,2.4,3,4.2,5.7,4.2c-2.1,1.6-4.7,2.6-7.5,2.6c-0.5,0-1,0-1.4-0.1c2.7,1.7,5.9,2.7,9.3,2.7c11.1,0,17.2-9.2,17.2-17.2
	c0-0.3,0-0.5,0-0.8C-220.1,294.1-219,293.1-218.2,291.8L-218.2,291.8z"/>
</svg>
