<?xml version="1.0" encoding="utf-8"?>
<!-- Generator: Adobe Illustrator 19.1.0, SVG Export Plug-In . SVG Version: 6.00 Build 0)  -->
<svg version="1.1" id="Layer_1" xmlns="http://www.w3.org/2000/svg" xmlns:xlink="http://www.w3.org/1999/xlink" x="0px" y="0px"
	 viewBox="-595.2 265.8 100 100" style="enable-background:new -595.2 265.8 100 100;" xml:space="preserve">
<style type="text/css">
	.st0{fill:#34A6CE;}
</style>
<path class="st0" d="M-1115.7,607.1c0-0.9-0.3-1.7-1-2.3l-21.5-21.6c-0.6-0.6-1.4-1-2.3-1c-1.6,0-3.3,1.2-3.3,3.3
	c0,0.6,0.2,1.2,0.5,1.7l11.1,18.7c0.4,0.7,0.5,1.7,0,2.4l-9.7,17.3c-0.3,0.5-0.4,1-0.4,1.7c0,2.1,1.7,3.3,3.3,3.3
	c0.9,0,1.7-0.3,2.3-1l20.1-20.1C-1116,608.8-1115.7,608-1115.7,607.1z"/>
<path class="st0" d="M-1091.9,604.2l-21.6-21.6c-0.8-0.8-1.8-1.2-2.9-1.2c-2.3,0-4.1,1.8-4.1,4.1c0,0.8,0.2,1.5,0.6,2.2l11.7,18.6
	c0.3,0.5,0.3,1.1,0,1.7l-10.2,17.1c-0.4,0.6-0.6,1.4-0.6,2.2c0,2.3,1.8,4.1,4.1,4.1c1.1,0,2.1-0.4,2.9-1.2l20.2-20.2
	c0.8-0.8,1.2-1.8,1.2-2.9C-1090.6,606-1091.1,605-1091.9,604.2z M-1093.6,608.2l-20.2,20.2c-0.4,0.4-0.8,0.5-1.1,0.5
	c-0.8,0-1.6-0.6-1.6-1.7c0-0.3,0.1-0.6,0.2-0.8l10.3-17.2c0.8-1.3,0.8-3,0-4.3l-11.7-18.5c-0.2-0.3-0.3-0.6-0.3-0.9
	c0-1,0.8-1.6,1.6-1.6c0.3,0,0.7,0.1,1.1,0.5l21.6,21.6c0.3,0.3,0.5,0.7,0.5,1.1C-1093.2,607.5-1093.3,607.9-1093.6,608.2z"/>
<g>
	<path class="st0" d="M-542.4,317c0-1.6-0.6-3.1-1.8-4.3l-39.7-39.7c-1.1-1.1-2.6-1.8-4.2-1.8c-3,0-6.1,2.3-6.1,6
		c0,1.1,0.3,2.1,0.8,3.1l20.4,34.3c0.8,1.4,0.8,3.1,0.1,4.5l-17.9,31.7c-0.5,0.9-0.8,1.9-0.8,3.1c0,3.8,3.1,6,6.1,6
		c1.6,0,3.1-0.6,4.2-1.8l37-37C-543,320.1-542.4,318.6-542.4,317z"/>
	<path class="st0" d="M-498.6,311.7l-39.8-39.7c-1.4-1.4-3.3-2.2-5.3-2.2c-4.2,0-7.6,3.4-7.6,7.5c0,1.4,0.4,2.8,1.2,4l21.6,34.2
		c0.6,0.9,0.6,2.1,0,3l-19,31.5c-0.7,1.2-1.1,2.5-1.1,4c0,4.2,3.4,7.5,7.6,7.5c2,0,3.9-0.8,5.3-2.2l37.1-37.1
		c1.4-1.4,2.2-3.3,2.2-5.3C-496.4,315-497.2,313.1-498.6,311.7z M-501.9,319l-37.1,37.1c-0.7,0.7-1.5,0.9-2,0.9
		c-1.4,0-2.9-1.1-2.9-3.1c0-0.5,0.1-1,0.4-1.5l19-31.5c1.5-2.5,1.5-5.5-0.1-7.9l-21.6-34.2c-0.3-0.5-0.4-1-0.4-1.5
		c0-1.8,1.5-2.9,2.9-2.9c0.5,0,1.3,0.1,2,0.9l39.8,39.7c0.5,0.5,0.9,1.3,0.9,2.1C-501,317.8-501.4,318.5-501.9,319z"/>
</g>
</svg>
