<?xml version="1.0" encoding="utf-8"?>
<!-- Generator: Adobe Illustrator 18.1.1, SVG Export Plug-In . SVG Version: 6.00 Build 0)  -->
<svg version="1.1" id="Capa_1" xmlns="http://www.w3.org/2000/svg" xmlns:xlink="http://www.w3.org/1999/xlink" x="0px" y="0px"
	 viewBox="0 0 1000 1000" enable-background="new 0 0 1000 1000" xml:space="preserve">
<g>
	<g>
		<path fill="#01049C" d="M2,0.2c-1.1,0-1.9-1.1-1.9,0v998.1c0,1.1,0.9,1.9,1.9,1.9h340.5v-0.2c14.1-0.2,24.8-8.1,25.4-21.5
			c1.2-34.7,0.4-69.5,0.4-103.2c-25.2,1.2-49.1,4.4-72.9,3c-52.5-3-92.6-25.4-113.6-76.8c-12.3-30.5-31-56.3-60-73.8
			c-5.5-3.2-10.2-8.1-14.3-12.9c-5.5-6.3-4.4-12.9,4.2-14.6s18.1-3,26.6-1.4c33.5,6.3,56.7,27.3,74.3,55.1
			c35,55.3,88.9,72.2,149.6,46.7c3.3-1.4,7.7-4.9,8.3-8.1c4.9-24.5,14.1-46.7,32.4-66.2c-20.4-3.9-39.4-6.5-58.1-10.9
			c-53.5-12.3-101.6-34.7-136.8-78.9c-28.7-36.1-41.9-78.3-47.9-123.4c-9.5-70.4-1.1-136.4,47.4-192.8c2.5-2.8,3.7-8.6,2.6-12.1
			c-12.1-39.6-10.2-78.9,1.8-118.1c6.3-20.6,8.1-21.7,29-18.7c1.2,0.2,2.5,0.5,3.9,0.7c42.1,7,78.3,27.3,113.9,49.3
			c4.8,3,12.1,4.8,17.4,3.5c85.2-20.6,170.2-20.6,255.5,0c4.9,1.2,11.6-0.5,16.2-3c19.4-10.2,38-22,57.6-31.5
			c22.9-11.1,47-19.5,72.9-19.2c4.6,0,11.6,4.4,13,8.5c15.7,41.4,18.8,83.5,6.5,126.4c-1.4,4.6,0.7,11.1,3.2,15.7
			c12.3,22.5,29.4,43.3,37.1,67.1c23.6,72.7,15,144.7-17.1,213.2c-29.6,62.7-84.2,94.4-148.9,110.7c-21.8,5.5-44.4,8.8-68,13.6
			c31,32.2,35.7,71.7,35.2,113c-0.5,42.6-0.4,85.2-0.5,127.8c0,20.6,9,32,24.6,32.7h336.4V0.2H2z"/>
	</g>
</g>
</svg>
