<?xml version="1.0" encoding="utf-8"?>
<!-- Generator: Adobe Illustrator 18.1.1, SVG Export Plug-In . SVG Version: 6.00 Build 0)  -->
<svg version="1.1" xmlns="http://www.w3.org/2000/svg" xmlns:xlink="http://www.w3.org/1999/xlink" x="0px" y="0px"
	 viewBox="0 0 925.6 97.3" enable-background="new 0 0 925.6 97.3" xml:space="preserve">
<g id="Layer_1" display="none">
	
		<image display="inline" overflow="visible" width="340" height="270" xlink:href="../../../../Desktop/austin.jpg"  transform="matrix(1.2339 0 0 1.2339 531.0658 -94.0175)">
	</image>
	
		<image display="inline" overflow="visible" width="236" height="236" xlink:href="../../../../Desktop/nola.jpg"  transform="matrix(1.7434 0 0 1.7434 -10.1974 -136.1228)">
	</image>
</g>
<g id="Layer_2">
	<polygon fill="#939598" points="1,64.3 13.8,64.3 13.8,59.8 16.8,59.8 16.8,56.6 22.5,56.6 22.5,51.6 30.8,51.6 30.8,56.6 
		35.5,56.6 35.5,61.8 43.5,61.8 43.5,67.8 61.5,68.1 61.5,64.8 63.5,64.8 63.5,63.1 84,63.1 84,58.3 87,58.1 87,54.8 104.5,54.8 
		104.5,40.3 106.8,40.3 106.8,36.3 108.5,36.3 108.5,33.3 131.5,33.3 131.5,35.6 133.5,35.8 133.5,38.6 135.5,38.6 135.5,53.8 
		138.2,53.8 138.2,50.8 139.5,51.1 139.5,47.6 141.5,47.6 141.5,45.3 157,45.3 157,41.3 174.2,41.3 174.2,28.1 179.5,28.1 
		179.5,25.6 190.8,25.6 190.8,28.1 196.2,28.1 196.2,54.3 205.8,54.3 205.8,57.1 211.5,57.1 211.5,67.3 215.2,67.3 215.2,69.8 
		217.8,69.8 217.8,71.1 219.8,71.1 219.8,77.6 223.8,77.6 223.8,65.3 233.8,65.3 233.8,62.8 241.5,62.8 241.5,65.3 250.8,65.3 
		250.8,78.3 258,78.1 258,58.6 277.2,58.6 277.2,61.1 280.5,61.1 280.5,63.8 280.5,75.1 289.5,75.1 289.5,71.6 305,71.6 305,85.6 
		309.2,85.6 309.2,90.8 312,90.8 312,71.1 317,71.1 317,44.8 313.8,44.8 313.8,38.6 327.2,38.6 327.2,35.6 330.5,35.6 330.5,38.6 
		335.8,38.6 335.8,46.3 333.5,46.3 333.5,71.8 337.5,71.8 337.5,78.1 343.8,78.1 343.8,91.3 349,91.3 349,85.6 357.5,85.6 
		357.5,83.1 361.8,83.1 361.8,86.1 363.5,86.1 363.5,94.3 0,94.3 	"/>
	<path fill="#FFFFFF" d="M16.5,82.1c0,0,16.3-7.9,24.6-10.1c3-0.8,5.7-1.3,8.3-1.7c4.6-0.7,9-0.8,14.6-0.8c8.7,0,22.5,2.6,30.5,5.3
		s15.1,7.2,15.1,7.2H16.5z"/>
	<polygon fill="#939598" points="570.2,94.3 570.2,82.8 577.7,79.3 592.7,79.3 592.7,74.8 616.7,74.8 616.7,77.3 618.5,77.3 
		618.5,85.8 620.5,85.8 620.5,80.8 629.2,80.8 629.2,44.1 631.7,44.1 631.7,40.1 633.2,40.1 633.2,38.1 636,38.1 636,36.1 
		651.5,36.1 651.5,38.1 653.5,38.3 653.5,40.1 655.7,40.1 655.7,43.3 658.2,43.3 658.2,78.6 666,78.6 666,82.8 668.7,82.8 
		668.7,72.6 671.5,72.6 671.5,51.3 674,51.3 674,43.3 676,43.3 676,35.3 677.7,35.3 677.7,33.2 679.2,33.2 679.2,30.2 680.4,30.2 
		680.4,28 681.7,28 681.7,25.3 682.9,25.3 682.9,28 684.1,28 684.1,30.2 685.6,30.2 685.6,33 687.1,33 687.1,35.3 688.7,35.3 
		688.7,43.3 691.6,43.3 691.6,51.3 693.9,51.3 693.9,83.3 695.4,83.3 695.4,71.2 708.7,71.2 708.7,83 711.6,83 711.6,85 713.7,85 
		713.7,87 715.1,87 715.1,84.7 716.1,84.7 716.1,81.3 723.4,81.3 723.4,79.8 724.7,79.8 724.7,71.2 732.9,71.2 732.9,80.2 
		734.2,80.2 734.2,34.3 737.4,34.3 737.4,19.5 738.4,19.5 738.4,15.3 740.9,15.3 740.9,13.8 742.1,13.8 742.1,11.5 743.1,11.5 
		743.1,10.5 744.2,10.5 744.2,9.3 745.4,9.3 745.4,4.5 746.6,4.5 746.6,6 748.3,5.9 748.3,3.3 750.6,3.3 750.6,5.8 751.9,5.8 
		751.9,4 753.2,4 753.2,9 754.7,9 754.7,10.7 756.2,10.7 756.2,12 757.6,12 757.6,13.7 759.2,13.7 759.2,15.2 761.1,15.2 
		761.1,20.3 762.2,20.3 762.2,34.2 765.1,34.2 765.1,67.5 771.2,67.5 771.2,73.3 769.4,73.3 769.4,84 772.4,84 772.4,78.7 
		775.2,78.7 775.2,53.8 778.9,53.8 778.9,46.8 782.9,46.8 782.9,39 786.4,39 786.4,30 790.2,30 790.2,23.5 795.2,23.5 795.2,15.7 
		812.1,15.7 812.1,23 816.2,23 816.2,30.8 821.1,30.8 821.1,38.3 825.1,38.3 825.1,45.8 828.6,45.8 828.6,54.7 832.6,54.7 832.6,83 
		837.7,83 837.7,76.8 842.1,76.8 842.1,82.3 843.4,82.3 843.4,54.3 847.4,54.3 847.4,52.8 851.4,52.8 851.4,51 853.1,51 853.1,48.8 
		856.4,48.8 856.4,46.5 861.9,46.5 861.9,48.8 865.6,48.8 865.6,51.7 868.1,51.7 868.1,53.2 872.2,53.2 872.2,55.5 875.2,55.5 
		875.2,86.2 878.7,86.2 878.7,68.5 882.4,68.5 882.4,66.2 900.1,66.2 900.1,68 911.9,68 911.9,86.3 914.2,86.3 914.2,88 925.6,88 
		925.6,94.3 	"/>
	<path fill="none" stroke="#231F20" stroke-miterlimit="10" d="M772.4,68.8"/>
	<rect x="181.8" y="41.5" fill="none" width="181.5" height="72"/>
	<text transform="matrix(1 0 0 1 181.7502 94.3885)" fill="#414042" font-family="'Adelle-Regular'" font-size="70">Nola </text>
	<rect x="595.7" y="41.5" fill="none" width="222.1" height="72"/>
	<text transform="matrix(1 0 0 1 595.7295 94.3885)" fill="#414042" font-family="'Adelle-Regular'" font-size="70">Austin</text>
	<rect x="358.1" y="76.9" fill="#414042" width="27.7" height="5.3"/>
	<rect x="391.1" y="76.9" fill="#414042" width="27.7" height="5.3"/>
	<rect x="424.2" y="76.9" fill="#414042" width="27.7" height="5.3"/>
	<rect x="457.2" y="76.9" fill="#414042" width="27.7" height="5.3"/>
	<rect x="490.2" y="76.9" fill="#414042" width="27.7" height="5.3"/>
	<rect x="523.2" y="76.9" fill="#414042" width="27.7" height="5.3"/>
	<polygon fill="#414042" points="563.9,77.3 552.8,68.4 549.5,72.6 558.7,80 549.4,84.8 551.8,89.5 566.8,81.8 568.7,80.7 	"/>
</g>
</svg>
