<?xml version="1.0" encoding="utf-8"?>
<!-- Generator: Adobe Illustrator 18.1.1, SVG Export Plug-In . SVG Version: 6.00 Build 0)  -->
<svg version="1.1" id="Layer_1" xmlns="http://www.w3.org/2000/svg" xmlns:xlink="http://www.w3.org/1999/xlink" x="0px" y="0px"
	 viewBox="0 440 1000 120" enable-background="new 0 440 1000 120" xml:space="preserve">
<g id="Layer_1_1_" display="none">
	
		<image display="inline" overflow="visible" enable-background="new    " width="340" height="270" xlink:href="../../../../Desktop/austin.jpg"  transform="matrix(1.3331 0 0 1.3331 573.7531 345.8648)">
	</image>
	
		<image display="inline" overflow="visible" enable-background="new    " width="236" height="236" xlink:href="../../../../Desktop/nola.jpg"  transform="matrix(1.8835 0 0 1.8835 -11.0171 300.3751)">
	</image>
</g>
<polygon fill="#939598" points="1.1,516.9 14.9,516.9 14.9,512 18.2,512 18.2,508.6 24.3,508.6 24.3,503.2 33.3,503.2 33.3,508.6 
	38.4,508.6 38.4,514.2 47,514.2 47,520.7 66.4,521 66.4,517.4 68.6,517.4 68.6,515.6 90.8,515.6 90.8,510.4 94,510.2 94,506.6 
	112.9,506.6 112.9,491 115.4,491 115.4,486.7 117.2,486.7 117.2,483.4 142.1,483.4 142.1,485.9 144.2,486.1 144.2,489.1 
	146.4,489.1 146.4,505.6 149.3,505.6 149.3,502.3 150.7,502.6 150.7,498.9 152.9,498.9 152.9,496.4 169.6,496.4 169.6,492.1 
	188.2,492.1 188.2,477.8 193.9,477.8 193.9,475.1 206.1,475.1 206.1,477.8 212,477.8 212,506.1 222.3,506.1 222.3,509.1 
	228.5,509.1 228.5,520.1 232.5,520.1 232.5,522.9 235.3,522.9 235.3,524.3 237.5,524.3 237.5,531.3 241.8,531.3 241.8,518 
	252.6,518 252.6,515.3 260.9,515.3 260.9,518 271,518 271,532 278.7,531.8 278.7,510.7 299.5,510.7 299.5,513.5 303,513.5 
	303,516.4 303,528.6 312.8,528.6 312.8,524.8 329.5,524.8 329.5,539.9 334.1,539.9 334.1,545.5 337.1,545.5 337.1,524.3 
	342.5,524.3 342.5,495.8 339,495.8 339,489.1 353.5,489.1 353.5,485.9 357.1,485.9 357.1,489.1 362.8,489.1 362.8,497.5 
	360.3,497.5 360.3,525 364.6,525 364.6,531.8 371.4,531.8 371.4,546.1 377.1,546.1 377.1,539.9 386.2,539.9 386.2,537.2 
	390.9,537.2 390.9,540.5 392.7,540.5 392.7,549.3 0,549.3 "/>
<path fill="#FFFFFF" d="M17.8,536.1c0,0,17.6-8.5,26.6-10.9c3.2-0.9,6.2-1.4,9-1.8c5-0.8,9.7-0.9,15.8-0.9c9.4,0,24.3,2.8,33,5.7
	c8.6,2.9,16.3,7.8,16.3,7.8H17.8V536.1z"/>
<polygon fill="#939598" points="616,549.3 616,536.9 624.1,533.1 640.3,533.1 640.3,528.3 666.3,528.3 666.3,531 668.2,531 
	668.2,540.1 670.4,540.1 670.4,534.7 679.8,534.7 679.8,495.1 682.5,495.1 682.5,490.8 684.1,490.8 684.1,488.6 687.1,488.6 
	687.1,486.4 703.9,486.4 703.9,488.6 706,488.8 706,490.8 708.4,490.8 708.4,494.2 711.1,494.2 711.1,532.4 719.5,532.4 
	719.5,536.9 722.5,536.9 722.5,525.9 725.5,525.9 725.5,502.9 728.2,502.9 728.2,494.2 730.3,494.2 730.3,485.6 732.2,485.6 
	732.2,483.3 733.8,483.3 733.8,480.1 735.1,480.1 735.1,477.7 736.5,477.7 736.5,474.8 737.8,474.8 737.8,477.7 739.1,477.7 
	739.1,480.1 740.7,480.1 740.7,483.1 742.3,483.1 742.3,485.6 744.1,485.6 744.1,494.2 747.2,494.2 747.2,502.9 749.7,502.9 
	749.7,537.4 751.3,537.4 751.3,524.4 765.7,524.4 765.7,537.1 768.8,537.1 768.8,539.3 771.1,539.3 771.1,541.4 772.6,541.4 
	772.6,538.9 773.7,538.9 773.7,535.3 781.5,535.3 781.5,533.7 783,533.7 783,524.4 791.8,524.4 791.8,534.1 793.2,534.1 
	793.2,484.5 796.7,484.5 796.7,468.5 797.8,468.5 797.8,464 800.5,464 800.5,462.3 801.8,462.3 801.8,459.9 802.8,459.9 
	802.8,458.8 804,458.8 804,457.5 805.3,457.5 805.3,452.3 806.6,452.3 806.6,453.9 808.4,453.8 808.4,451 810.9,451 810.9,453.7 
	812.3,453.7 812.3,451.8 813.7,451.8 813.7,457.2 815.4,457.2 815.4,459 817,459 817,460.4 818.5,460.4 818.5,462.2 820.2,462.2 
	820.2,463.9 822.3,463.9 822.3,469.4 823.5,469.4 823.5,484.4 826.6,484.4 826.6,520.4 833.2,520.4 833.2,526.6 831.2,526.6 
	831.2,538.2 834.5,538.2 834.5,532.5 837.5,532.5 837.5,505.6 841.5,505.6 841.5,498 845.8,498 845.8,489.6 849.6,489.6 
	849.6,479.9 853.7,479.9 853.7,472.8 859.1,472.8 859.1,464.4 877.4,464.4 877.4,472.3 881.8,472.3 881.8,480.7 887.1,480.7 
	887.1,488.8 891.4,488.8 891.4,496.9 895.2,496.9 895.2,506.5 899.5,506.5 899.5,537.1 905,537.1 905,530.4 909.8,530.4 
	909.8,536.4 911.2,536.4 911.2,506.1 915.5,506.1 915.5,504.5 919.8,504.5 919.8,502.5 921.7,502.5 921.7,500.2 925.2,500.2 
	925.2,497.7 931.2,497.7 931.2,500.2 935.2,500.2 935.2,503.3 937.9,503.3 937.9,504.9 942.3,504.9 942.3,507.4 945.5,507.4 
	945.5,540.6 949.3,540.6 949.3,521.4 953.3,521.4 953.3,519 972.5,519 972.5,520.9 985.2,520.9 985.2,540.7 987.7,540.7 
	987.7,542.5 1000,542.5 1000,549.3 "/>
<path fill="none" stroke="#231F20" stroke-miterlimit="10" d="M834.5,521.8"/>
<rect x="196.4" y="492.3" fill="none" width="196.1" height="77.8"/>
<rect x="643.6" y="492.3" fill="none" width="240" height="77.8"/>
<rect x="363.8" y="500" transform="matrix(-0.8287 0.5596 -0.5596 -0.8287 973.9876 707.6733)" fill="#414042" width="29.9" height="5.7"/>
<rect x="401.2" y="480.7" transform="matrix(-0.9213 0.3888 -0.3888 -0.9213 987.5252 767.2508)" fill="#414042" width="29.9" height="5.7"/>
<rect x="448.3" y="465.1" transform="matrix(-0.9875 0.1579 -0.1579 -0.9875 994.6052 856.881)" fill="#414042" width="29.9" height="5.7"/>
<rect x="500" y="462.2" fill="#414042" width="29.9" height="5.7"/>
<rect x="549.9" y="470.7" transform="matrix(-0.9818 -0.1901 0.1901 -0.9818 1029.3212 1045.9532)" fill="#414042" width="29.9" height="5.7"/>
<rect x="590.6" y="487.8" transform="matrix(-0.9131 -0.4077 0.4077 -0.9131 958.3587 1185.6238)" fill="#414042" width="29.9" height="5.7"/>
<rect x="629.7" y="507.3" transform="matrix(-0.8284 -0.5602 0.5602 -0.8284 881.6801 1290.526)" fill="#414042" width="17.7" height="5.7"/>
<polygon fill="#414042" points="653.6,510.5 650.9,511 652.7,520.1 643.6,521.9 644.1,524.6 653.2,522.8 653.2,522.8 655.9,522.3 
	655.9,522.3 655.9,522.3 655.4,519.6 655.4,519.6 "/>
</svg>
