<?xml version="1.0" encoding="utf-8"?>
<!-- Generator: Adobe Illustrator 18.1.1, SVG Export Plug-In . SVG Version: 6.00 Build 0)  -->
<svg version="1.1" id="Capa_1" xmlns="http://www.w3.org/2000/svg" xmlns:xlink="http://www.w3.org/1999/xlink" x="0px" y="0px"
	 viewBox="0 0 1000 1000" enable-background="new 0 0 1000 1000" xml:space="preserve">
<g>
	<path fill="#01049C" d="M0,0v1000h1000V0H0z M743.7,375c0,6.3,0,9.4,0,15.6c0,165.6-125,356.2-356.2,356.2
		c-71.9,0-137.5-21.9-190.6-56.2c9.4,0,18.8,3.1,31.2,3.1c59.4,0,112.5-18.8,156.3-53.1c-56.2,0-100-37.5-115.6-87.5
		c6.3,0,15.6,3.1,25,3.1c12.5,0,21.9,0,34.4-3.1c-56.2-12.5-100-62.5-100-121.9c0,0,0,0,0-3.1c15.6,9.4,37.5,15.6,56.2,15.6
		c-34.4-21.9-56.2-59.4-56.2-103.1c0-21.9,6.3-43.7,15.6-62.5c62.5,75,153.1,125,256.3,131.3c-3.1-9.4-3.1-18.8-3.1-28.1
		c0-68.8,56.2-125,125-125c34.4,0,68.8,15.6,90.6,40.6c28.1-6.3,56.2-15.6,78.1-31.2c-9.4,28.1-28.1,53.1-56.2,68.8
		c25-3.1,50-9.4,71.9-18.8C787.5,337.5,765.6,359.4,743.7,375z"/>
</g>
</svg>
